<?xml version="1.0" standalone="no"?>
<!DOCTYPE svg PUBLIC "-//W3C//DTD SVG 20010904//EN"
 "http://www.w3.org/TR/2001/REC-SVG-20010904/DTD/svg10.dtd">
<svg version="1.0" xmlns="http://www.w3.org/2000/svg"
 width="540.000000pt" height="240.000000pt" viewBox="0 0 540.000000 240.000000"
 preserveAspectRatio="xMidYMid meet">

<g transform="translate(0.000000,240.000000) scale(0.100000,-0.100000)"
fill="#000000" stroke="none">
<path d="M0 1200 l0 -1200 2700 0 2700 0 0 1200 0 1200 -2700 0 -2700 0 0
-1200z m2545 838 c11 -32 10 -41 -6 -67 -10 -16 -27 -32 -39 -36 -22 -7 -22
-9 -1 -155 4 -25 3 -65 -2 -89 -6 -28 -5 -51 1 -66 8 -16 7 -34 0 -59 l-11
-36 -29 27 c-30 29 -37 63 -13 63 20 0 29 57 20 135 -5 51 -10 65 -23 65 -11
0 -13 -3 -6 -8 8 -5 8 -18 -1 -47 l-12 -40 -13 27 c-9 20 -10 38 -3 70 5 24 9
89 9 145 -1 114 -3 112 77 109 35 -1 40 -4 52 -38z m191 -484 c-3 -9 -3 -14 1
-12 5 2 22 10 38 18 17 8 36 21 44 28 21 20 26 6 7 -23 l-16 -25 55 0 c59 0
66 -13 18 -31 -23 -8 -24 -11 -11 -22 24 -19 52 -67 39 -67 -6 0 -11 5 -11 12
0 6 -3 8 -7 4 -4 -3 -6 -25 -4 -48 l2 -41 -45 37 c-51 41 -54 40 -30 -7 l17
-32 -37 33 c-20 17 -50 39 -67 47 -40 21 -88 75 -89 99 0 16 2 17 16 5 14 -11
19 -9 35 11 10 14 22 34 25 44 6 18 7 18 16 2 5 -9 7 -24 4 -32z m-50 -157
c17 -54 31 -80 47 -88 12 -7 51 -38 87 -70 62 -54 67 -56 90 -43 14 7 30 13
35 14 14 0 95 -79 95 -93 0 -6 -20 8 -44 32 -46 45 -52 45 -91 10 -20 -18 -22
-16 -115 65 -95 82 -95 83 -114 155 -10 39 -28 84 -40 99 l-21 27 24 -15 c16
-11 31 -40 47 -93z m-8 -575 c2 -7 -4 -15 -13 -18 -20 -8 -27 -1 -19 20 7 18
25 17 32 -2z m-50 -304 c-8 -28 -21 -41 -57 -60 l-47 -24 18 38 c15 31 85 94
95 85 1 -2 -3 -19 -9 -39z"/>
<path d="M2750 1480 c-11 -7 -5 -8 18 -4 28 6 39 2 70 -27 l37 -34 -34 38
c-35 37 -63 45 -91 27z"/>
</g>
</svg>
